<mxfile host="app.diagrams.net" modified="2022-01-14T06:02:03.572Z" agent="5.0 (Windows NT 10.0; Win64; x64) AppleWebKit/537.36 (KHTML, like Gecko) Chrome/97.0.4692.71 Safari/537.36" etag="BjC8SFU_8ITKZpvEmAlL" version="16.2.4" type="github" pages="2">
  <diagram id="C5RBs43oDa-KdzZeNtuy" name="Page-1">
    <mxGraphModel dx="2009" dy="1901" grid="1" gridSize="10" guides="1" tooltips="1" connect="1" arrows="1" fold="1" page="1" pageScale="1" pageWidth="827" pageHeight="1169" math="0" shadow="0">
      <root>
        <mxCell id="WIyWlLk6GJQsqaUBKTNV-0" />
        <mxCell id="WIyWlLk6GJQsqaUBKTNV-1" parent="WIyWlLk6GJQsqaUBKTNV-0" />
        <mxCell id="682P6ub5fbpFgpQjJev--23" value="" style="edgeStyle=orthogonalEdgeStyle;rounded=0;orthogonalLoop=1;jettySize=auto;html=1;" edge="1" parent="WIyWlLk6GJQsqaUBKTNV-1" source="WIyWlLk6GJQsqaUBKTNV-3" target="WIyWlLk6GJQsqaUBKTNV-6">
          <mxGeometry relative="1" as="geometry" />
        </mxCell>
        <mxCell id="WIyWlLk6GJQsqaUBKTNV-3" value="Iterate ci" style="rounded=1;whiteSpace=wrap;html=1;fontSize=12;glass=0;strokeWidth=1;shadow=0;fillColor=#fff2cc;strokeColor=#d6b656;" parent="WIyWlLk6GJQsqaUBKTNV-1" vertex="1">
          <mxGeometry x="280" y="70" width="120" height="40" as="geometry" />
        </mxCell>
        <mxCell id="682P6ub5fbpFgpQjJev--1" value="legal data" style="edgeStyle=orthogonalEdgeStyle;rounded=0;orthogonalLoop=1;jettySize=auto;html=1;exitX=0.5;exitY=1;exitDx=0;exitDy=0;entryX=0.5;entryY=0;entryDx=0;entryDy=0;" edge="1" parent="WIyWlLk6GJQsqaUBKTNV-1" source="WIyWlLk6GJQsqaUBKTNV-6" target="WIyWlLk6GJQsqaUBKTNV-10">
          <mxGeometry x="0.0133" relative="1" as="geometry">
            <Array as="points">
              <mxPoint x="340" y="310" />
              <mxPoint x="340" y="310" />
            </Array>
            <mxPoint as="offset" />
          </mxGeometry>
        </mxCell>
        <mxCell id="682P6ub5fbpFgpQjJev--20" style="edgeStyle=orthogonalEdgeStyle;rounded=0;orthogonalLoop=1;jettySize=auto;html=1;entryX=0;entryY=0.5;entryDx=0;entryDy=0;" edge="1" parent="WIyWlLk6GJQsqaUBKTNV-1" source="WIyWlLk6GJQsqaUBKTNV-6" target="WIyWlLk6GJQsqaUBKTNV-7">
          <mxGeometry relative="1" as="geometry" />
        </mxCell>
        <mxCell id="682P6ub5fbpFgpQjJev--21" value="illegal data" style="edgeLabel;html=1;align=center;verticalAlign=middle;resizable=0;points=[];" vertex="1" connectable="0" parent="682P6ub5fbpFgpQjJev--20">
          <mxGeometry x="-0.2609" y="3" relative="1" as="geometry">
            <mxPoint as="offset" />
          </mxGeometry>
        </mxCell>
        <mxCell id="WIyWlLk6GJQsqaUBKTNV-6" value="Filter Data" style="rhombus;whiteSpace=wrap;html=1;shadow=0;fontFamily=Helvetica;fontSize=12;align=center;strokeWidth=1;spacing=6;spacingTop=-4;fillColor=#e1d5e7;strokeColor=#9673a6;" parent="WIyWlLk6GJQsqaUBKTNV-1" vertex="1">
          <mxGeometry x="290" y="210" width="100" height="80" as="geometry" />
        </mxCell>
        <mxCell id="2wZz1OtGQcBtz8wy5y7g-34" style="edgeStyle=orthogonalEdgeStyle;rounded=0;orthogonalLoop=1;jettySize=auto;html=1;entryX=0.5;entryY=0;entryDx=0;entryDy=0;fontSize=12;" parent="WIyWlLk6GJQsqaUBKTNV-1" source="WIyWlLk6GJQsqaUBKTNV-7" target="WIyWlLk6GJQsqaUBKTNV-3" edge="1">
          <mxGeometry relative="1" as="geometry">
            <Array as="points">
              <mxPoint x="910" y="50" />
              <mxPoint x="340" y="50" />
            </Array>
          </mxGeometry>
        </mxCell>
        <mxCell id="WIyWlLk6GJQsqaUBKTNV-7" value="Add to failed list" style="rounded=1;whiteSpace=wrap;html=1;fontSize=12;glass=0;strokeWidth=1;shadow=0;fillColor=#f8cecc;strokeColor=#b85450;" parent="WIyWlLk6GJQsqaUBKTNV-1" vertex="1">
          <mxGeometry x="850" y="230" width="120" height="40" as="geometry" />
        </mxCell>
        <mxCell id="682P6ub5fbpFgpQjJev--0" value="no existed" style="edgeStyle=orthogonalEdgeStyle;rounded=0;orthogonalLoop=1;jettySize=auto;html=1;entryX=0;entryY=0.5;entryDx=0;entryDy=0;" edge="1" parent="WIyWlLk6GJQsqaUBKTNV-1" source="WIyWlLk6GJQsqaUBKTNV-10" target="WIyWlLk6GJQsqaUBKTNV-12">
          <mxGeometry relative="1" as="geometry" />
        </mxCell>
        <mxCell id="682P6ub5fbpFgpQjJev--22" value="existed" style="edgeStyle=orthogonalEdgeStyle;rounded=0;orthogonalLoop=1;jettySize=auto;html=1;" edge="1" parent="WIyWlLk6GJQsqaUBKTNV-1" source="WIyWlLk6GJQsqaUBKTNV-10" target="2wZz1OtGQcBtz8wy5y7g-12">
          <mxGeometry relative="1" as="geometry" />
        </mxCell>
        <mxCell id="WIyWlLk6GJQsqaUBKTNV-10" value="global Id&lt;br&gt;existed" style="rhombus;whiteSpace=wrap;html=1;shadow=0;fontFamily=Helvetica;fontSize=12;align=center;strokeWidth=1;spacing=6;spacingTop=-4;fillColor=#e1d5e7;strokeColor=#9673a6;" parent="WIyWlLk6GJQsqaUBKTNV-1" vertex="1">
          <mxGeometry x="290" y="365" width="100" height="80" as="geometry" />
        </mxCell>
        <mxCell id="2wZz1OtGQcBtz8wy5y7g-40" value="" style="edgeStyle=orthogonalEdgeStyle;rounded=0;orthogonalLoop=1;jettySize=auto;html=1;fontSize=12;" parent="WIyWlLk6GJQsqaUBKTNV-1" source="WIyWlLk6GJQsqaUBKTNV-12" target="2wZz1OtGQcBtz8wy5y7g-39" edge="1">
          <mxGeometry relative="1" as="geometry" />
        </mxCell>
        <mxCell id="WIyWlLk6GJQsqaUBKTNV-12" value="create ci in CMS" style="rounded=1;whiteSpace=wrap;html=1;fontSize=12;glass=0;strokeWidth=1;shadow=0;fillColor=#d5e8d4;strokeColor=#82b366;" parent="WIyWlLk6GJQsqaUBKTNV-1" vertex="1">
          <mxGeometry x="470" y="385" width="120" height="40" as="geometry" />
        </mxCell>
        <mxCell id="2wZz1OtGQcBtz8wy5y7g-6" style="edgeStyle=orthogonalEdgeStyle;rounded=0;orthogonalLoop=1;jettySize=auto;html=1;entryX=0.5;entryY=1;entryDx=0;entryDy=0;exitX=1;exitY=0.5;exitDx=0;exitDy=0;" parent="WIyWlLk6GJQsqaUBKTNV-1" source="2wZz1OtGQcBtz8wy5y7g-4" target="WIyWlLk6GJQsqaUBKTNV-7" edge="1">
          <mxGeometry relative="1" as="geometry">
            <Array as="points">
              <mxPoint x="910" y="650" />
            </Array>
          </mxGeometry>
        </mxCell>
        <mxCell id="682P6ub5fbpFgpQjJev--4" value="&lt;span style=&quot;font-size: 12px ; background-color: rgb(248 , 249 , 250)&quot;&gt;not existed&lt;/span&gt;" style="edgeLabel;html=1;align=center;verticalAlign=middle;resizable=0;points=[];" vertex="1" connectable="0" parent="2wZz1OtGQcBtz8wy5y7g-6">
          <mxGeometry x="-0.2901" relative="1" as="geometry">
            <mxPoint x="-72" as="offset" />
          </mxGeometry>
        </mxCell>
        <mxCell id="682P6ub5fbpFgpQjJev--27" value="existed" style="edgeStyle=orthogonalEdgeStyle;rounded=0;orthogonalLoop=1;jettySize=auto;html=1;" edge="1" parent="WIyWlLk6GJQsqaUBKTNV-1" source="2wZz1OtGQcBtz8wy5y7g-4" target="682P6ub5fbpFgpQjJev--26">
          <mxGeometry relative="1" as="geometry" />
        </mxCell>
        <mxCell id="2wZz1OtGQcBtz8wy5y7g-4" value="ci existed" style="rhombus;whiteSpace=wrap;html=1;shadow=0;fontFamily=Helvetica;fontSize=12;align=center;strokeWidth=1;spacing=6;spacingTop=-4;fillColor=#e1d5e7;strokeColor=#9673a6;" parent="WIyWlLk6GJQsqaUBKTNV-1" vertex="1">
          <mxGeometry x="480" y="610" width="100" height="80" as="geometry" />
        </mxCell>
        <mxCell id="2wZz1OtGQcBtz8wy5y7g-27" value="" style="edgeStyle=orthogonalEdgeStyle;rounded=0;orthogonalLoop=1;jettySize=auto;html=1;fontSize=12;entryX=1;entryY=0.5;entryDx=0;entryDy=0;" parent="WIyWlLk6GJQsqaUBKTNV-1" source="2wZz1OtGQcBtz8wy5y7g-12" target="2wZz1OtGQcBtz8wy5y7g-13" edge="1">
          <mxGeometry relative="1" as="geometry">
            <mxPoint x="170" y="515" as="targetPoint" />
          </mxGeometry>
        </mxCell>
        <mxCell id="682P6ub5fbpFgpQjJev--10" value="&lt;span style=&quot;font-size: 12px ; background-color: rgb(248 , 249 , 250)&quot;&gt;legal&lt;/span&gt;" style="edgeLabel;html=1;align=center;verticalAlign=middle;resizable=0;points=[];" vertex="1" connectable="0" parent="2wZz1OtGQcBtz8wy5y7g-27">
          <mxGeometry x="-0.1282" y="-2" relative="1" as="geometry">
            <mxPoint as="offset" />
          </mxGeometry>
        </mxCell>
        <mxCell id="682P6ub5fbpFgpQjJev--8" style="edgeStyle=orthogonalEdgeStyle;rounded=0;orthogonalLoop=1;jettySize=auto;html=1;entryX=0.5;entryY=1;entryDx=0;entryDy=0;" edge="1" parent="WIyWlLk6GJQsqaUBKTNV-1" source="2wZz1OtGQcBtz8wy5y7g-12" target="WIyWlLk6GJQsqaUBKTNV-12">
          <mxGeometry relative="1" as="geometry" />
        </mxCell>
        <mxCell id="682P6ub5fbpFgpQjJev--9" value="&lt;span style=&quot;font-size: 14px ; background-color: rgb(248 , 249 , 250)&quot;&gt;illegal&lt;/span&gt;" style="edgeLabel;html=1;align=center;verticalAlign=middle;resizable=0;points=[];" vertex="1" connectable="0" parent="682P6ub5fbpFgpQjJev--8">
          <mxGeometry x="0.55" relative="1" as="geometry">
            <mxPoint as="offset" />
          </mxGeometry>
        </mxCell>
        <mxCell id="2wZz1OtGQcBtz8wy5y7g-12" value="Verify global Id" style="rhombus;whiteSpace=wrap;html=1;shadow=0;fontFamily=Helvetica;fontSize=12;align=center;strokeWidth=1;spacing=6;spacingTop=-4;fillColor=#e1d5e7;strokeColor=#9673a6;" parent="WIyWlLk6GJQsqaUBKTNV-1" vertex="1">
          <mxGeometry x="290" y="515" width="100" height="80" as="geometry" />
        </mxCell>
        <mxCell id="2wZz1OtGQcBtz8wy5y7g-29" value="" style="edgeStyle=orthogonalEdgeStyle;rounded=0;orthogonalLoop=1;jettySize=auto;html=1;fontSize=12;" parent="WIyWlLk6GJQsqaUBKTNV-1" target="2wZz1OtGQcBtz8wy5y7g-28" edge="1">
          <mxGeometry relative="1" as="geometry">
            <Array as="points">
              <mxPoint x="110" y="455" />
              <mxPoint x="110" y="455" />
            </Array>
            <mxPoint x="110" y="485" as="sourcePoint" />
          </mxGeometry>
        </mxCell>
        <mxCell id="2wZz1OtGQcBtz8wy5y7g-13" value="query ci from CMS" style="whiteSpace=wrap;html=1;shadow=0;strokeWidth=1;spacing=6;spacingTop=-4;fillColor=#dae8fc;strokeColor=#6c8ebf;" parent="WIyWlLk6GJQsqaUBKTNV-1" vertex="1">
          <mxGeometry x="50" y="450" width="120" height="60" as="geometry" />
        </mxCell>
        <mxCell id="682P6ub5fbpFgpQjJev--14" value="" style="edgeStyle=orthogonalEdgeStyle;rounded=0;orthogonalLoop=1;jettySize=auto;html=1;" edge="1" parent="WIyWlLk6GJQsqaUBKTNV-1" source="2wZz1OtGQcBtz8wy5y7g-15" target="682P6ub5fbpFgpQjJev--13">
          <mxGeometry relative="1" as="geometry" />
        </mxCell>
        <mxCell id="2wZz1OtGQcBtz8wy5y7g-15" value="update CMS attributes to SMAX" style="whiteSpace=wrap;html=1;shadow=0;strokeWidth=1;spacing=6;spacingTop=-4;fillColor=#d5e8d4;strokeColor=#82b366;" parent="WIyWlLk6GJQsqaUBKTNV-1" vertex="1">
          <mxGeometry x="50" y="150" width="120" height="60" as="geometry" />
        </mxCell>
        <mxCell id="2wZz1OtGQcBtz8wy5y7g-30" style="edgeStyle=orthogonalEdgeStyle;rounded=0;orthogonalLoop=1;jettySize=auto;html=1;entryX=0.5;entryY=0;entryDx=0;entryDy=0;fontSize=12;" parent="WIyWlLk6GJQsqaUBKTNV-1" source="2wZz1OtGQcBtz8wy5y7g-28" target="WIyWlLk6GJQsqaUBKTNV-12" edge="1">
          <mxGeometry relative="1" as="geometry">
            <Array as="points">
              <mxPoint x="170" y="375" />
              <mxPoint x="170" y="320" />
              <mxPoint x="530" y="320" />
            </Array>
          </mxGeometry>
        </mxCell>
        <mxCell id="682P6ub5fbpFgpQjJev--12" value="&lt;span style=&quot;font-size: 12px ; background-color: rgb(248 , 249 , 250)&quot;&gt;ci not existed&lt;/span&gt;" style="edgeLabel;html=1;align=center;verticalAlign=middle;resizable=0;points=[];" vertex="1" connectable="0" parent="2wZz1OtGQcBtz8wy5y7g-30">
          <mxGeometry x="-0.434" y="1" relative="1" as="geometry">
            <mxPoint as="offset" />
          </mxGeometry>
        </mxCell>
        <mxCell id="2wZz1OtGQcBtz8wy5y7g-32" value="" style="edgeStyle=orthogonalEdgeStyle;rounded=0;orthogonalLoop=1;jettySize=auto;html=1;fontSize=12;" parent="WIyWlLk6GJQsqaUBKTNV-1" source="2wZz1OtGQcBtz8wy5y7g-28" target="2wZz1OtGQcBtz8wy5y7g-15" edge="1">
          <mxGeometry relative="1" as="geometry" />
        </mxCell>
        <mxCell id="682P6ub5fbpFgpQjJev--11" value="&lt;span style=&quot;font-size: 12px ; background-color: rgb(248 , 249 , 250)&quot;&gt;ci existed&lt;/span&gt;" style="edgeLabel;html=1;align=center;verticalAlign=middle;resizable=0;points=[];" vertex="1" connectable="0" parent="2wZz1OtGQcBtz8wy5y7g-32">
          <mxGeometry x="-0.28" y="2" relative="1" as="geometry">
            <mxPoint as="offset" />
          </mxGeometry>
        </mxCell>
        <mxCell id="2wZz1OtGQcBtz8wy5y7g-28" value="ci existed in CMS" style="rhombus;whiteSpace=wrap;html=1;shadow=0;strokeWidth=1;spacing=6;spacingTop=-4;fillColor=#e1d5e7;strokeColor=#9673a6;" parent="WIyWlLk6GJQsqaUBKTNV-1" vertex="1">
          <mxGeometry x="70" y="335" width="80" height="80" as="geometry" />
        </mxCell>
        <mxCell id="2wZz1OtGQcBtz8wy5y7g-43" style="edgeStyle=orthogonalEdgeStyle;rounded=0;orthogonalLoop=1;jettySize=auto;html=1;fontSize=12;" parent="WIyWlLk6GJQsqaUBKTNV-1" source="2wZz1OtGQcBtz8wy5y7g-39" target="2wZz1OtGQcBtz8wy5y7g-15" edge="1">
          <mxGeometry relative="1" as="geometry">
            <mxPoint x="180" y="170" as="targetPoint" />
            <Array as="points">
              <mxPoint x="720" y="180" />
            </Array>
          </mxGeometry>
        </mxCell>
        <mxCell id="682P6ub5fbpFgpQjJev--3" value="&lt;span style=&quot;font-size: 12px ; background-color: rgb(248 , 249 , 250)&quot;&gt;create succesfully&lt;/span&gt;" style="edgeLabel;html=1;align=center;verticalAlign=middle;resizable=0;points=[];" vertex="1" connectable="0" parent="2wZz1OtGQcBtz8wy5y7g-43">
          <mxGeometry x="-0.8204" y="1" relative="1" as="geometry">
            <mxPoint as="offset" />
          </mxGeometry>
        </mxCell>
        <mxCell id="2wZz1OtGQcBtz8wy5y7g-46" value="" style="edgeStyle=orthogonalEdgeStyle;rounded=0;orthogonalLoop=1;jettySize=auto;html=1;fontSize=12;" parent="WIyWlLk6GJQsqaUBKTNV-1" source="2wZz1OtGQcBtz8wy5y7g-39" target="2wZz1OtGQcBtz8wy5y7g-45" edge="1">
          <mxGeometry relative="1" as="geometry">
            <Array as="points">
              <mxPoint x="720" y="460" />
              <mxPoint x="720" y="460" />
            </Array>
          </mxGeometry>
        </mxCell>
        <mxCell id="682P6ub5fbpFgpQjJev--6" value="create failed" style="edgeLabel;html=1;align=center;verticalAlign=middle;resizable=0;points=[];" vertex="1" connectable="0" parent="2wZz1OtGQcBtz8wy5y7g-46">
          <mxGeometry x="-0.2667" y="1" relative="1" as="geometry">
            <mxPoint as="offset" />
          </mxGeometry>
        </mxCell>
        <mxCell id="2wZz1OtGQcBtz8wy5y7g-39" value="create successfully" style="rhombus;whiteSpace=wrap;html=1;shadow=0;fontFamily=Helvetica;fontSize=12;align=center;strokeWidth=1;spacing=6;spacingTop=-4;fillColor=#e1d5e7;strokeColor=#9673a6;" parent="WIyWlLk6GJQsqaUBKTNV-1" vertex="1">
          <mxGeometry x="670" y="365" width="100" height="80" as="geometry" />
        </mxCell>
        <mxCell id="2wZz1OtGQcBtz8wy5y7g-47" style="edgeStyle=orthogonalEdgeStyle;rounded=0;orthogonalLoop=1;jettySize=auto;html=1;entryX=0.5;entryY=0;entryDx=0;entryDy=0;fontSize=12;" parent="WIyWlLk6GJQsqaUBKTNV-1" source="2wZz1OtGQcBtz8wy5y7g-45" target="2wZz1OtGQcBtz8wy5y7g-4" edge="1">
          <mxGeometry relative="1" as="geometry" />
        </mxCell>
        <mxCell id="2wZz1OtGQcBtz8wy5y7g-45" value="query ci in CMS by displyaLabel" style="whiteSpace=wrap;html=1;shadow=0;strokeWidth=1;spacing=6;spacingTop=-4;fillColor=#dae8fc;strokeColor=#6c8ebf;" parent="WIyWlLk6GJQsqaUBKTNV-1" vertex="1">
          <mxGeometry x="670" y="535" width="120" height="60" as="geometry" />
        </mxCell>
        <mxCell id="682P6ub5fbpFgpQjJev--16" style="edgeStyle=orthogonalEdgeStyle;rounded=0;orthogonalLoop=1;jettySize=auto;html=1;entryX=0;entryY=0.5;entryDx=0;entryDy=0;" edge="1" parent="WIyWlLk6GJQsqaUBKTNV-1" source="682P6ub5fbpFgpQjJev--13" target="WIyWlLk6GJQsqaUBKTNV-3">
          <mxGeometry relative="1" as="geometry" />
        </mxCell>
        <mxCell id="682P6ub5fbpFgpQjJev--19" value="update successfully" style="edgeLabel;html=1;align=center;verticalAlign=middle;resizable=0;points=[];" vertex="1" connectable="0" parent="682P6ub5fbpFgpQjJev--16">
          <mxGeometry x="-0.5222" y="1" relative="1" as="geometry">
            <mxPoint x="41" as="offset" />
          </mxGeometry>
        </mxCell>
        <mxCell id="682P6ub5fbpFgpQjJev--17" style="edgeStyle=orthogonalEdgeStyle;rounded=0;orthogonalLoop=1;jettySize=auto;html=1;entryX=1;entryY=0.5;entryDx=0;entryDy=0;" edge="1" parent="WIyWlLk6GJQsqaUBKTNV-1" source="682P6ub5fbpFgpQjJev--13" target="WIyWlLk6GJQsqaUBKTNV-7">
          <mxGeometry relative="1" as="geometry">
            <Array as="points">
              <mxPoint x="110" y="-20" />
              <mxPoint x="1000" y="-20" />
              <mxPoint x="1000" y="250" />
            </Array>
          </mxGeometry>
        </mxCell>
        <mxCell id="682P6ub5fbpFgpQjJev--18" value="update failed" style="edgeLabel;html=1;align=center;verticalAlign=middle;resizable=0;points=[];" vertex="1" connectable="0" parent="682P6ub5fbpFgpQjJev--17">
          <mxGeometry x="-0.4067" y="1" relative="1" as="geometry">
            <mxPoint as="offset" />
          </mxGeometry>
        </mxCell>
        <mxCell id="682P6ub5fbpFgpQjJev--13" value="Is update successfully" style="rhombus;whiteSpace=wrap;html=1;fillColor=#d5e8d4;strokeColor=#82b366;shadow=0;strokeWidth=1;spacing=6;spacingTop=-4;" vertex="1" parent="WIyWlLk6GJQsqaUBKTNV-1">
          <mxGeometry x="70" width="80" height="80" as="geometry" />
        </mxCell>
        <mxCell id="682P6ub5fbpFgpQjJev--28" style="edgeStyle=orthogonalEdgeStyle;rounded=0;orthogonalLoop=1;jettySize=auto;html=1;entryX=0.75;entryY=1;entryDx=0;entryDy=0;" edge="1" parent="WIyWlLk6GJQsqaUBKTNV-1" source="682P6ub5fbpFgpQjJev--26" target="WIyWlLk6GJQsqaUBKTNV-7">
          <mxGeometry relative="1" as="geometry">
            <Array as="points">
              <mxPoint x="350" y="720" />
              <mxPoint x="940" y="720" />
            </Array>
          </mxGeometry>
        </mxCell>
        <mxCell id="682P6ub5fbpFgpQjJev--30" value="existed" style="edgeLabel;html=1;align=center;verticalAlign=middle;resizable=0;points=[];" vertex="1" connectable="0" parent="682P6ub5fbpFgpQjJev--28">
          <mxGeometry x="-0.5257" y="-1" relative="1" as="geometry">
            <mxPoint as="offset" />
          </mxGeometry>
        </mxCell>
        <mxCell id="682P6ub5fbpFgpQjJev--29" style="edgeStyle=orthogonalEdgeStyle;rounded=0;orthogonalLoop=1;jettySize=auto;html=1;entryX=0;entryY=0.5;entryDx=0;entryDy=0;" edge="1" parent="WIyWlLk6GJQsqaUBKTNV-1" source="682P6ub5fbpFgpQjJev--26" target="2wZz1OtGQcBtz8wy5y7g-15">
          <mxGeometry relative="1" as="geometry">
            <Array as="points">
              <mxPoint x="20" y="650" />
              <mxPoint x="20" y="180" />
            </Array>
          </mxGeometry>
        </mxCell>
        <mxCell id="682P6ub5fbpFgpQjJev--31" value="not existed" style="edgeLabel;html=1;align=center;verticalAlign=middle;resizable=0;points=[];" vertex="1" connectable="0" parent="682P6ub5fbpFgpQjJev--29">
          <mxGeometry x="-0.1937" relative="1" as="geometry">
            <mxPoint as="offset" />
          </mxGeometry>
        </mxCell>
        <mxCell id="682P6ub5fbpFgpQjJev--26" value="Check if globalId exists" style="whiteSpace=wrap;html=1;fillColor=#e1d5e7;strokeColor=#9673a6;shadow=0;strokeWidth=1;spacing=6;spacingTop=-4;" vertex="1" parent="WIyWlLk6GJQsqaUBKTNV-1">
          <mxGeometry x="290" y="620" width="120" height="60" as="geometry" />
        </mxCell>
      </root>
    </mxGraphModel>
  </diagram>
  <diagram id="rLGNWV_rgOTA-5dvK9ah" name="第 2 页">
    <mxGraphModel dx="1038" dy="643" grid="1" gridSize="10" guides="1" tooltips="1" connect="1" arrows="1" fold="1" page="1" pageScale="1" pageWidth="850" pageHeight="1100" math="0" shadow="0">
      <root>
        <mxCell id="XHfUlSskarsXEhxc1ur9-0" />
        <mxCell id="XHfUlSskarsXEhxc1ur9-1" parent="XHfUlSskarsXEhxc1ur9-0" />
        <mxCell id="mqE3kbf-x0iQlUKWS7vL-0" value="" style="rounded=0;html=1;jettySize=auto;orthogonalLoop=1;fontSize=11;endArrow=block;endFill=0;endSize=8;strokeWidth=1;shadow=0;labelBackgroundColor=none;edgeStyle=orthogonalEdgeStyle;" edge="1" parent="XHfUlSskarsXEhxc1ur9-1" source="mqE3kbf-x0iQlUKWS7vL-1" target="mqE3kbf-x0iQlUKWS7vL-4">
          <mxGeometry relative="1" as="geometry" />
        </mxCell>
        <mxCell id="mqE3kbf-x0iQlUKWS7vL-1" value="Iterate ci" style="rounded=1;whiteSpace=wrap;html=1;fontSize=12;glass=0;strokeWidth=1;shadow=0;fillColor=#fff2cc;strokeColor=#d6b656;" vertex="1" parent="XHfUlSskarsXEhxc1ur9-1">
          <mxGeometry x="280" y="70" width="120" height="40" as="geometry" />
        </mxCell>
        <mxCell id="mqE3kbf-x0iQlUKWS7vL-2" value="legal data" style="rounded=0;html=1;jettySize=auto;orthogonalLoop=1;fontSize=11;endArrow=block;endFill=0;endSize=8;strokeWidth=1;shadow=0;labelBackgroundColor=none;edgeStyle=orthogonalEdgeStyle;" edge="1" parent="XHfUlSskarsXEhxc1ur9-1" source="mqE3kbf-x0iQlUKWS7vL-4" target="mqE3kbf-x0iQlUKWS7vL-9">
          <mxGeometry x="1" y="30" relative="1" as="geometry">
            <mxPoint as="offset" />
          </mxGeometry>
        </mxCell>
        <mxCell id="mqE3kbf-x0iQlUKWS7vL-3" value="illegal data" style="edgeStyle=orthogonalEdgeStyle;rounded=0;html=1;jettySize=auto;orthogonalLoop=1;fontSize=11;endArrow=block;endFill=0;endSize=8;strokeWidth=1;shadow=0;labelBackgroundColor=none;" edge="1" parent="XHfUlSskarsXEhxc1ur9-1" source="mqE3kbf-x0iQlUKWS7vL-4" target="mqE3kbf-x0iQlUKWS7vL-6">
          <mxGeometry x="0.2143" y="10" relative="1" as="geometry">
            <mxPoint as="offset" />
          </mxGeometry>
        </mxCell>
        <mxCell id="mqE3kbf-x0iQlUKWS7vL-4" value="Filter Data" style="rhombus;whiteSpace=wrap;html=1;shadow=0;fontFamily=Helvetica;fontSize=12;align=center;strokeWidth=1;spacing=6;spacingTop=-4;fillColor=#e1d5e7;strokeColor=#9673a6;" vertex="1" parent="XHfUlSskarsXEhxc1ur9-1">
          <mxGeometry x="290" y="170" width="100" height="80" as="geometry" />
        </mxCell>
        <mxCell id="mqE3kbf-x0iQlUKWS7vL-5" style="edgeStyle=orthogonalEdgeStyle;rounded=0;orthogonalLoop=1;jettySize=auto;html=1;entryX=0.5;entryY=0;entryDx=0;entryDy=0;fontSize=12;" edge="1" parent="XHfUlSskarsXEhxc1ur9-1" source="mqE3kbf-x0iQlUKWS7vL-6" target="mqE3kbf-x0iQlUKWS7vL-1">
          <mxGeometry relative="1" as="geometry">
            <Array as="points">
              <mxPoint x="910" y="50" />
              <mxPoint x="340" y="50" />
            </Array>
          </mxGeometry>
        </mxCell>
        <mxCell id="mqE3kbf-x0iQlUKWS7vL-6" value="Add to failed list" style="rounded=1;whiteSpace=wrap;html=1;fontSize=12;glass=0;strokeWidth=1;shadow=0;fillColor=#f8cecc;strokeColor=#b85450;" vertex="1" parent="XHfUlSskarsXEhxc1ur9-1">
          <mxGeometry x="850" y="190" width="120" height="40" as="geometry" />
        </mxCell>
        <mxCell id="mqE3kbf-x0iQlUKWS7vL-7" value="existed" style="rounded=0;html=1;jettySize=auto;orthogonalLoop=1;fontSize=11;endArrow=block;endFill=0;endSize=8;strokeWidth=1;shadow=0;labelBackgroundColor=none;edgeStyle=orthogonalEdgeStyle;" edge="1" parent="XHfUlSskarsXEhxc1ur9-1" source="mqE3kbf-x0iQlUKWS7vL-9">
          <mxGeometry x="-0.1429" y="30" relative="1" as="geometry">
            <mxPoint as="offset" />
            <mxPoint x="340" y="440" as="targetPoint" />
          </mxGeometry>
        </mxCell>
        <mxCell id="mqE3kbf-x0iQlUKWS7vL-8" value="no existed" style="edgeStyle=orthogonalEdgeStyle;rounded=0;html=1;jettySize=auto;orthogonalLoop=1;fontSize=11;endArrow=block;endFill=0;endSize=8;strokeWidth=1;shadow=0;labelBackgroundColor=none;" edge="1" parent="XHfUlSskarsXEhxc1ur9-1" source="mqE3kbf-x0iQlUKWS7vL-9" target="mqE3kbf-x0iQlUKWS7vL-11">
          <mxGeometry y="10" relative="1" as="geometry">
            <mxPoint as="offset" />
          </mxGeometry>
        </mxCell>
        <mxCell id="mqE3kbf-x0iQlUKWS7vL-9" value="global Id&lt;br&gt;existed" style="rhombus;whiteSpace=wrap;html=1;shadow=0;fontFamily=Helvetica;fontSize=12;align=center;strokeWidth=1;spacing=6;spacingTop=-4;fillColor=#e1d5e7;strokeColor=#9673a6;" vertex="1" parent="XHfUlSskarsXEhxc1ur9-1">
          <mxGeometry x="290" y="290" width="100" height="80" as="geometry" />
        </mxCell>
        <mxCell id="mqE3kbf-x0iQlUKWS7vL-10" value="" style="edgeStyle=orthogonalEdgeStyle;rounded=0;orthogonalLoop=1;jettySize=auto;html=1;fontSize=12;" edge="1" parent="XHfUlSskarsXEhxc1ur9-1" source="mqE3kbf-x0iQlUKWS7vL-11" target="mqE3kbf-x0iQlUKWS7vL-30">
          <mxGeometry relative="1" as="geometry" />
        </mxCell>
        <mxCell id="mqE3kbf-x0iQlUKWS7vL-11" value="create ci in CMS" style="rounded=1;whiteSpace=wrap;html=1;fontSize=12;glass=0;strokeWidth=1;shadow=0;fillColor=#d5e8d4;strokeColor=#82b366;" vertex="1" parent="XHfUlSskarsXEhxc1ur9-1">
          <mxGeometry x="470" y="310" width="120" height="40" as="geometry" />
        </mxCell>
        <mxCell id="mqE3kbf-x0iQlUKWS7vL-12" style="edgeStyle=orthogonalEdgeStyle;rounded=0;orthogonalLoop=1;jettySize=auto;html=1;entryX=0.5;entryY=1;entryDx=0;entryDy=0;" edge="1" parent="XHfUlSskarsXEhxc1ur9-1" target="mqE3kbf-x0iQlUKWS7vL-6">
          <mxGeometry relative="1" as="geometry">
            <mxPoint x="580" y="560" as="sourcePoint" />
            <Array as="points">
              <mxPoint x="910" y="560" />
            </Array>
          </mxGeometry>
        </mxCell>
        <mxCell id="mqE3kbf-x0iQlUKWS7vL-13" style="edgeStyle=orthogonalEdgeStyle;rounded=0;orthogonalLoop=1;jettySize=auto;html=1;entryX=0;entryY=0.5;entryDx=0;entryDy=0;" edge="1" parent="XHfUlSskarsXEhxc1ur9-1" target="mqE3kbf-x0iQlUKWS7vL-20">
          <mxGeometry relative="1" as="geometry">
            <mxPoint x="20" y="120" as="targetPoint" />
            <mxPoint x="480" y="560" as="sourcePoint" />
          </mxGeometry>
        </mxCell>
        <mxCell id="mqE3kbf-x0iQlUKWS7vL-14" style="edgeStyle=orthogonalEdgeStyle;rounded=0;orthogonalLoop=1;jettySize=auto;html=1;fontSize=14;" edge="1" parent="XHfUlSskarsXEhxc1ur9-1" source="mqE3kbf-x0iQlUKWS7vL-16">
          <mxGeometry relative="1" as="geometry">
            <mxPoint x="470" y="340" as="targetPoint" />
            <Array as="points">
              <mxPoint x="410" y="480" />
              <mxPoint x="410" y="340" />
              <mxPoint x="470" y="340" />
            </Array>
          </mxGeometry>
        </mxCell>
        <mxCell id="mqE3kbf-x0iQlUKWS7vL-15" value="" style="edgeStyle=orthogonalEdgeStyle;rounded=0;orthogonalLoop=1;jettySize=auto;html=1;fontSize=12;" edge="1" parent="XHfUlSskarsXEhxc1ur9-1" source="mqE3kbf-x0iQlUKWS7vL-16" target="mqE3kbf-x0iQlUKWS7vL-18">
          <mxGeometry relative="1" as="geometry" />
        </mxCell>
        <mxCell id="mqE3kbf-x0iQlUKWS7vL-16" value="Verify global Id" style="rhombus;whiteSpace=wrap;html=1;shadow=0;fontFamily=Helvetica;fontSize=12;align=center;strokeWidth=1;spacing=6;spacingTop=-4;fillColor=#e1d5e7;strokeColor=#9673a6;" vertex="1" parent="XHfUlSskarsXEhxc1ur9-1">
          <mxGeometry x="290" y="440" width="100" height="80" as="geometry" />
        </mxCell>
        <mxCell id="mqE3kbf-x0iQlUKWS7vL-17" value="" style="edgeStyle=orthogonalEdgeStyle;rounded=0;orthogonalLoop=1;jettySize=auto;html=1;fontSize=12;" edge="1" parent="XHfUlSskarsXEhxc1ur9-1" source="mqE3kbf-x0iQlUKWS7vL-18" target="mqE3kbf-x0iQlUKWS7vL-25">
          <mxGeometry relative="1" as="geometry">
            <Array as="points">
              <mxPoint x="110" y="420" />
              <mxPoint x="110" y="420" />
            </Array>
          </mxGeometry>
        </mxCell>
        <mxCell id="mqE3kbf-x0iQlUKWS7vL-18" value="query ci from CMS" style="whiteSpace=wrap;html=1;shadow=0;strokeWidth=1;spacing=6;spacingTop=-4;fillColor=#dae8fc;strokeColor=#6c8ebf;" vertex="1" parent="XHfUlSskarsXEhxc1ur9-1">
          <mxGeometry x="50" y="450" width="120" height="60" as="geometry" />
        </mxCell>
        <mxCell id="mqE3kbf-x0iQlUKWS7vL-19" style="edgeStyle=orthogonalEdgeStyle;rounded=0;orthogonalLoop=1;jettySize=auto;html=1;entryX=0;entryY=0.5;entryDx=0;entryDy=0;" edge="1" parent="XHfUlSskarsXEhxc1ur9-1" source="mqE3kbf-x0iQlUKWS7vL-20" target="mqE3kbf-x0iQlUKWS7vL-1">
          <mxGeometry relative="1" as="geometry">
            <Array as="points">
              <mxPoint x="110" y="90" />
            </Array>
          </mxGeometry>
        </mxCell>
        <mxCell id="mqE3kbf-x0iQlUKWS7vL-20" value="update CMS attributes to SMAX" style="whiteSpace=wrap;html=1;shadow=0;strokeWidth=1;spacing=6;spacingTop=-4;fillColor=#d5e8d4;strokeColor=#82b366;" vertex="1" parent="XHfUlSskarsXEhxc1ur9-1">
          <mxGeometry x="50" y="150" width="120" height="60" as="geometry" />
        </mxCell>
        <mxCell id="mqE3kbf-x0iQlUKWS7vL-21" value="legal" style="text;html=1;strokeColor=none;fillColor=none;align=center;verticalAlign=middle;whiteSpace=wrap;rounded=0;" vertex="1" parent="XHfUlSskarsXEhxc1ur9-1">
          <mxGeometry x="210" y="450" width="60" height="30" as="geometry" />
        </mxCell>
        <mxCell id="mqE3kbf-x0iQlUKWS7vL-22" value="illegal" style="text;html=1;strokeColor=none;fillColor=none;align=center;verticalAlign=middle;whiteSpace=wrap;rounded=0;fontSize=14;" vertex="1" parent="XHfUlSskarsXEhxc1ur9-1">
          <mxGeometry x="400" y="400" width="60" height="30" as="geometry" />
        </mxCell>
        <mxCell id="mqE3kbf-x0iQlUKWS7vL-23" style="edgeStyle=orthogonalEdgeStyle;rounded=0;orthogonalLoop=1;jettySize=auto;html=1;entryX=0.25;entryY=0;entryDx=0;entryDy=0;fontSize=12;" edge="1" parent="XHfUlSskarsXEhxc1ur9-1" source="mqE3kbf-x0iQlUKWS7vL-25" target="mqE3kbf-x0iQlUKWS7vL-11">
          <mxGeometry relative="1" as="geometry">
            <Array as="points">
              <mxPoint x="170" y="340" />
              <mxPoint x="170" y="270" />
              <mxPoint x="500" y="270" />
            </Array>
          </mxGeometry>
        </mxCell>
        <mxCell id="mqE3kbf-x0iQlUKWS7vL-24" value="" style="edgeStyle=orthogonalEdgeStyle;rounded=0;orthogonalLoop=1;jettySize=auto;html=1;fontSize=12;" edge="1" parent="XHfUlSskarsXEhxc1ur9-1" source="mqE3kbf-x0iQlUKWS7vL-25" target="mqE3kbf-x0iQlUKWS7vL-20">
          <mxGeometry relative="1" as="geometry" />
        </mxCell>
        <mxCell id="mqE3kbf-x0iQlUKWS7vL-25" value="ci existed in CMS" style="rhombus;whiteSpace=wrap;html=1;shadow=0;strokeWidth=1;spacing=6;spacingTop=-4;fillColor=#e1d5e7;strokeColor=#9673a6;" vertex="1" parent="XHfUlSskarsXEhxc1ur9-1">
          <mxGeometry x="70" y="300" width="80" height="80" as="geometry" />
        </mxCell>
        <mxCell id="mqE3kbf-x0iQlUKWS7vL-26" value="not existed" style="text;html=1;strokeColor=none;fillColor=none;align=center;verticalAlign=middle;whiteSpace=wrap;rounded=0;fontSize=12;" vertex="1" parent="XHfUlSskarsXEhxc1ur9-1">
          <mxGeometry x="210" y="240" width="70" height="30" as="geometry" />
        </mxCell>
        <mxCell id="mqE3kbf-x0iQlUKWS7vL-27" value="existed" style="text;html=1;strokeColor=none;fillColor=none;align=center;verticalAlign=middle;whiteSpace=wrap;rounded=0;fontSize=12;" vertex="1" parent="XHfUlSskarsXEhxc1ur9-1">
          <mxGeometry x="60" y="240" width="60" height="30" as="geometry" />
        </mxCell>
        <mxCell id="mqE3kbf-x0iQlUKWS7vL-28" style="edgeStyle=orthogonalEdgeStyle;rounded=0;orthogonalLoop=1;jettySize=auto;html=1;fontSize=12;" edge="1" parent="XHfUlSskarsXEhxc1ur9-1" source="mqE3kbf-x0iQlUKWS7vL-30" target="mqE3kbf-x0iQlUKWS7vL-1">
          <mxGeometry relative="1" as="geometry">
            <mxPoint x="720" y="70" as="targetPoint" />
            <Array as="points">
              <mxPoint x="720" y="80" />
            </Array>
          </mxGeometry>
        </mxCell>
        <mxCell id="mqE3kbf-x0iQlUKWS7vL-29" value="" style="edgeStyle=orthogonalEdgeStyle;rounded=0;orthogonalLoop=1;jettySize=auto;html=1;fontSize=12;" edge="1" parent="XHfUlSskarsXEhxc1ur9-1" source="mqE3kbf-x0iQlUKWS7vL-30" target="mqE3kbf-x0iQlUKWS7vL-33">
          <mxGeometry relative="1" as="geometry" />
        </mxCell>
        <mxCell id="mqE3kbf-x0iQlUKWS7vL-30" value="create successfully" style="rhombus;whiteSpace=wrap;html=1;shadow=0;fontFamily=Helvetica;fontSize=12;align=center;strokeWidth=1;spacing=6;spacingTop=-4;fillColor=#e1d5e7;strokeColor=#9673a6;" vertex="1" parent="XHfUlSskarsXEhxc1ur9-1">
          <mxGeometry x="670" y="290" width="100" height="80" as="geometry" />
        </mxCell>
        <mxCell id="mqE3kbf-x0iQlUKWS7vL-31" value="create succesfully" style="text;html=1;strokeColor=none;fillColor=none;align=center;verticalAlign=middle;whiteSpace=wrap;rounded=0;fontSize=12;" vertex="1" parent="XHfUlSskarsXEhxc1ur9-1">
          <mxGeometry x="660" y="250" width="60" height="30" as="geometry" />
        </mxCell>
        <mxCell id="mqE3kbf-x0iQlUKWS7vL-32" style="edgeStyle=orthogonalEdgeStyle;rounded=0;orthogonalLoop=1;jettySize=auto;html=1;entryX=0.5;entryY=0;entryDx=0;entryDy=0;fontSize=12;" edge="1" parent="XHfUlSskarsXEhxc1ur9-1" source="mqE3kbf-x0iQlUKWS7vL-33">
          <mxGeometry relative="1" as="geometry">
            <mxPoint x="530" y="520" as="targetPoint" />
          </mxGeometry>
        </mxCell>
        <mxCell id="mqE3kbf-x0iQlUKWS7vL-33" value="query ci in CMS by displyaLabel" style="whiteSpace=wrap;html=1;shadow=0;strokeWidth=1;spacing=6;spacingTop=-4;fillColor=#dae8fc;strokeColor=#6c8ebf;" vertex="1" parent="XHfUlSskarsXEhxc1ur9-1">
          <mxGeometry x="660" y="420" width="120" height="60" as="geometry" />
        </mxCell>
        <mxCell id="mqE3kbf-x0iQlUKWS7vL-34" value="create failed" style="text;html=1;strokeColor=none;fillColor=none;align=center;verticalAlign=middle;whiteSpace=wrap;rounded=0;fontSize=12;" vertex="1" parent="XHfUlSskarsXEhxc1ur9-1">
          <mxGeometry x="720" y="380" width="60" height="30" as="geometry" />
        </mxCell>
        <mxCell id="mqE3kbf-x0iQlUKWS7vL-35" value="not existed" style="text;html=1;strokeColor=none;fillColor=none;align=center;verticalAlign=middle;whiteSpace=wrap;rounded=0;fontSize=12;" vertex="1" parent="XHfUlSskarsXEhxc1ur9-1">
          <mxGeometry x="730" y="530" width="60" height="30" as="geometry" />
        </mxCell>
        <mxCell id="mqE3kbf-x0iQlUKWS7vL-36" value="existed" style="text;html=1;strokeColor=none;fillColor=none;align=center;verticalAlign=middle;whiteSpace=wrap;rounded=0;fontSize=12;" vertex="1" parent="XHfUlSskarsXEhxc1ur9-1">
          <mxGeometry x="370" y="530" width="60" height="30" as="geometry" />
        </mxCell>
      </root>
    </mxGraphModel>
  </diagram>
</mxfile>
